<svg width="16" height="11" viewBox="0 0 16 11" fill="none" xmlns="http://www.w3.org/2000/svg">
<path d="M3.01449 10.6667C1.95813 10.6667 1.18519 10.4296 0.695652 9.95556C0.231884 9.45653 0 8.84522 0 8.12164V7.41053C0 6.73684 0.10306 6.06316 0.309179 5.38947C0.515298 4.69084 0.785829 4.01715 1.12077 3.36842C1.48148 2.71969 1.9066 2.10838 2.39613 1.5345C2.88567 0.960622 3.41385 0.449122 3.98068 0H7.30435C6.47987 0.773488 5.78422 1.5345 5.21739 2.28304C4.65056 3.03158 4.22544 3.86745 3.94203 4.79064C4.68921 4.94035 5.23027 5.25224 5.56522 5.72632C5.90016 6.17544 6.06763 6.69942 6.06763 7.29825V8.12164C6.06763 8.84522 5.82287 9.45653 5.33333 9.95556C4.86956 10.4296 4.09662 10.6667 3.01449 10.6667ZM11.7101 10.6667C10.6538 10.6667 9.88084 10.4296 9.3913 9.95556C8.92754 9.45653 8.69565 8.84522 8.69565 8.12164V7.41053C8.69565 6.73684 8.79871 6.06316 9.00483 5.38947C9.21095 4.69084 9.48148 4.01715 9.81642 3.36842C10.1771 2.71969 10.6023 2.10838 11.0918 1.5345C11.5813 0.960622 12.1095 0.449122 12.6763 0H16C15.1755 0.773488 14.4799 1.5345 13.913 2.28304C13.3462 3.03158 12.9211 3.86745 12.6377 4.79064C13.3849 4.94035 13.9259 5.25224 14.2609 5.72632C14.5958 6.17544 14.7633 6.69942 14.7633 7.29825V8.12164C14.7633 8.84522 14.5185 9.45653 14.029 9.95556C13.5652 10.4296 12.7923 10.6667 11.7101 10.6667Z" fill="#59CDFF"/>
</svg>
